<svg width="1082" height="594" viewBox="0 0 1082 594" fill="none" xmlns="http://www.w3.org/2000/svg">
<path d="M0 37.6249V594H1082V0H0V37.6249ZM189.669 207.085V219.676C182.51 219.973 175.43 221.232 168.743 223.231H8.33881V207.011H189.669V207.085ZM8.33881 382.767V370.695H168.822C175.43 372.694 182.431 373.953 189.669 374.25V382.767H8.33881ZM189.669 230.268V363.806C150.807 361.659 120.834 330.329 122.801 293.593C123.745 275.743 132.084 259.301 146.165 247.303C158.359 236.933 173.542 231.082 189.669 230.194V230.268ZM198.007 230.268C216.73 231.305 233.959 239.081 246.624 252.191C259.368 265.448 265.819 282.557 264.875 300.481C263.931 318.331 255.592 334.773 241.511 346.772C229.317 357.141 214.134 363.066 198.007 363.955V230.194V230.268ZM8.33881 252.561H19.431C45.4701 252.561 66.6318 272.485 66.6318 297C66.6318 321.515 45.4701 341.439 19.431 341.439H8.33881V252.561ZM19.431 349.29C50.0329 349.29 74.9706 325.811 74.9706 297C74.9706 268.189 50.0329 244.71 19.431 244.71H8.33881V231.082H150.728C146.48 233.526 142.468 236.341 138.77 239.526C122.486 253.376 112.889 272.41 111.787 293.001C110.214 322.182 126.105 348.401 150.807 362.77H8.33881V349.142H19.431V349.29ZM39.7274 390.618V397.876H45.2341V390.618H54.0449V397.876H59.5517V390.618H93.851V397.876H99.3577V390.618H133.106V397.876H138.613V390.618H197.929V374.25C216.809 373.361 234.667 366.473 248.906 354.4C265.19 340.55 274.787 321.515 275.889 300.925C276.99 280.261 269.517 260.486 254.806 245.155C240.095 229.823 219.956 220.787 198.007 219.75V199.308H138.692V192.05H133.185V199.308H99.4364V192.05H93.9296V199.308H59.5517V192.05H54.0449V199.308H45.2341V192.05H39.7274V199.308H8.33881V45.4017H133.736C241.354 88.2853 310.817 186.94 310.817 297C310.817 407.06 241.354 505.715 133.736 548.598H8.33881V390.618H39.6487H39.7274ZM545.169 212.64C592.685 214.714 630.76 251.746 630.76 297C630.76 342.254 592.764 379.36 545.169 381.36V212.64ZM536.831 381.434C489.315 379.36 451.24 342.328 451.24 297.074C451.24 251.82 489.236 214.714 536.831 212.714V381.508V381.434ZM890.758 382.841V374.324C897.996 373.953 904.997 372.768 911.684 370.769H1072.17V382.841H890.758ZM1072.17 207.159V223.38H911.684C904.997 221.38 897.996 220.121 890.758 219.75V207.159H1072.17ZM890.758 230.268C926.473 232.193 955.738 259.301 957.626 293.667C958.57 311.517 952.119 328.626 939.375 341.957C926.788 355.067 909.56 362.844 890.758 363.881V230.194V230.268ZM947.556 348.919C962.267 333.588 969.741 313.813 968.639 293.149C967.223 266.782 951.883 244.118 929.62 231.156H1072.09V244.784H1061C1030.39 244.784 1005.46 268.263 1005.46 297.074C1005.46 325.885 1030.39 349.364 1061 349.364H1072.09V362.992H929.699C936.228 359.214 942.207 354.548 947.478 348.994L947.556 348.919ZM1072.17 341.513H1061.07C1035.04 341.513 1013.87 321.59 1013.87 297.074C1013.87 272.559 1035.04 252.635 1061.07 252.635H1072.17V341.513ZM882.498 363.881C866.371 362.992 851.109 357.067 838.995 346.698C824.913 334.699 816.653 318.257 815.63 300.407C813.663 263.745 843.636 232.341 882.498 230.194V363.806V363.881ZM1073.74 199.308H1040.86V192.05H1035.35V199.308H1026.54V192.05H1021.03V199.308H986.733V192.05H981.226V199.308H947.478V192.05H941.971V199.308H882.655V219.75C837.421 221.898 802.493 258.338 804.774 300.925C805.875 321.59 815.473 340.55 831.757 354.4C845.996 366.473 863.775 373.435 882.734 374.25V390.618H942.05V397.876H947.556V390.618H981.305V397.876H986.812V390.618H1021.11V397.876H1026.62V390.618H1035.43V397.876H1040.94V390.618H1073.82V548.598H948.422C840.804 505.715 771.34 407.06 771.34 297C771.34 186.94 840.804 88.2853 948.422 45.4017H1073.82V199.308H1073.74ZM1073.74 37.6249H946.612L945.826 37.9212C834.668 81.8416 762.923 183.533 762.923 297C762.923 410.467 834.746 512.158 945.904 556.079L946.691 556.375H1073.82V586.149H781.724V552.45H773.385V586.149H545.248V391.803C598.9 389.729 641.931 348.031 641.931 297C641.931 245.969 598.978 204.271 545.248 202.197V7.85087H773.385V41.4763H781.724V7.85087H1073.82V37.6249H1073.74ZM300.433 7.85087V41.4763H308.772V7.85087H536.909V202.197C483.258 204.271 440.226 245.969 440.226 297C440.226 348.031 483.179 389.729 536.909 391.803V586.149H308.772V552.45H300.433V586.149H8.33881V556.375H135.388L136.174 556.079C247.332 512.158 319.156 410.467 319.156 297C319.156 183.533 247.332 81.8416 136.174 37.9212L135.388 37.6249H8.33881V7.85087H300.433Z" fill="#F2F2F2" fill-opacity="0.2"/>
<path d="M1045.34 297C1045.34 303.666 1051.08 309.147 1058.24 309.147C1065.4 309.147 1071.14 303.74 1071.14 297C1071.14 290.26 1065.4 284.853 1058.24 284.853C1051.08 284.853 1045.34 290.26 1045.34 297ZM1065.56 297C1065.56 300.777 1062.25 303.888 1058.24 303.888C1054.23 303.888 1050.93 300.777 1050.93 297C1050.93 293.223 1054.23 290.112 1058.24 290.112C1062.25 290.112 1065.56 293.223 1065.56 297Z" fill="#F2F2F2" fill-opacity="0.2"/>
<path d="M35.1646 297C35.1646 290.334 29.4218 284.853 22.263 284.853C15.1042 284.853 9.36145 290.26 9.36145 297C9.36145 303.74 15.1042 309.147 22.263 309.147C29.4218 309.147 35.1646 303.74 35.1646 297ZM14.9469 297C14.9469 293.223 18.2509 290.112 22.263 290.112C26.2751 290.112 29.5791 293.223 29.5791 297C29.5791 300.777 26.2751 303.888 22.263 303.888C18.2509 303.888 14.9469 300.777 14.9469 297Z" fill="#F2F2F2" fill-opacity="0.2"/>
</svg>
