<svg width="260" height="97" viewBox="0 0 260 97" fill="none" xmlns="http://www.w3.org/2000/svg">
<g clip-path="url(#clip0_49_426)">
<path d="M103.938 16.56C102.803 15.1397 98.0951 16.56 98.0951 16.56C98.0951 16.56 100.053 12.7005 102.543 13.1019C105.032 13.5032 107.474 11.6404 107.474 11.6404C107.474 11.6404 103.24 13.2357 101.537 11.6404C100.402 10.5751 98.3503 11.2287 97.1108 11.7845C97.7982 11.3625 98.6107 10.6832 98.8294 9.7775C99.22 8.13591 101.756 7.86832 101.756 7.86832C101.756 7.86832 98.5273 7.02436 96.5588 7.86832C94.5954 8.71227 93.5487 7.822 92.5852 6.36052C91.627 4.89904 89.7938 4.98652 89.7938 4.98652C89.7938 4.98652 93.0227 1.08067 94.8142 2.36718C96.6057 3.6537 98.7409 2.89723 98.7409 2.89723C98.7409 2.89723 95.8141 3.03102 95.512 1.03435C95.2047 -0.962318 88.4814 0.545477 88.4814 0.545477C81.9352 1.77024 78.7376 0.391096 73.5298 1.30195C73.6183 1.30195 73.7068 1.2968 73.7901 1.2968C76.0608 1.2968 78.2272 1.75995 80.1906 2.58846C80.3468 2.60905 80.4978 2.62963 80.6541 2.65021C80.9926 2.70168 81.3311 2.75828 81.6644 2.82003C81.9977 2.87664 82.3206 2.95383 82.633 3.02588C83.258 3.16997 83.8308 3.33979 84.3152 3.47873C84.7995 3.61767 85.2057 3.70516 85.5026 3.74632C85.6484 3.76691 85.7629 3.7772 85.8463 3.78235L85.9713 3.79264L85.8515 3.81837C85.7734 3.83381 85.6536 3.85439 85.5026 3.86468C85.2005 3.89556 84.7578 3.88527 84.2475 3.81322C83.7371 3.74632 83.1538 3.63826 82.5289 3.53534C82.3206 3.49931 82.1123 3.46844 81.8935 3.43242C82.8934 3.99848 83.8308 4.66747 84.6797 5.42394C84.7839 5.39821 84.8932 5.37762 84.9974 5.35189C85.3203 5.2747 85.638 5.18207 85.9296 5.0843C86.2212 4.97623 86.4973 4.8836 86.7212 4.78068C86.9503 4.68291 87.143 4.60057 87.2732 4.53367L87.4815 4.4359L87.2941 4.56455C87.1691 4.64174 86.9972 4.7601 86.7733 4.87846C86.5493 4.99682 86.2837 5.12547 85.9921 5.23868C85.6952 5.35189 85.3724 5.45482 85.0495 5.53715C84.987 5.55259 84.9245 5.56288 84.8568 5.57317C85.7057 6.35023 86.4712 7.21477 87.143 8.15135C87.3045 8.00211 87.4867 7.85288 87.6951 7.71908C88.0179 7.50809 88.3981 7.33313 88.7991 7.22506C89.2053 7.12728 89.6272 7.11185 90.0125 7.16845C90.3979 7.21991 90.7416 7.35886 91.0124 7.50809C91.2832 7.66247 91.4655 7.84259 91.5853 7.97638C91.6478 8.04328 91.6843 8.09989 91.7103 8.13591L91.752 8.19252L91.6999 8.14106C91.6686 8.11018 91.6218 8.05357 91.5541 8.00211C91.4291 7.88375 91.226 7.73452 90.9552 7.60587C90.6896 7.47722 90.351 7.37944 89.9865 7.33827C89.622 7.29196 89.2209 7.31769 88.846 7.42061C88.4658 7.51324 88.1013 7.67791 87.7836 7.86832C87.5753 7.99697 87.3878 8.13076 87.2211 8.26456C87.3722 8.4807 87.5232 8.70198 87.6638 8.9284C87.7263 8.88724 87.794 8.84607 87.8513 8.81005C87.9971 8.71742 88.1377 8.66596 88.2315 8.61964L88.3825 8.56303L88.2731 8.68139C88.2002 8.74829 88.1065 8.86151 87.9867 8.97987C87.9294 9.03133 87.8721 9.09822 87.8096 9.15998C88.5908 10.4465 89.1949 11.8514 89.5855 13.3386C89.5959 13.3386 89.6011 13.3386 89.6115 13.3386C89.9761 13.3797 90.3406 13.3952 90.6843 13.39C91.0281 13.3746 91.351 13.3643 91.6218 13.3231C91.7572 13.3077 91.8821 13.2871 91.9967 13.2665C92.1061 13.2511 92.205 13.2357 92.2832 13.2151L92.5331 13.1636L92.2936 13.2511C92.2155 13.2768 92.1217 13.3077 92.0123 13.3386C91.903 13.3695 91.778 13.4055 91.6426 13.4312C91.3666 13.4878 91.0437 13.5393 90.6896 13.5599C90.351 13.5753 89.9917 13.565 89.6324 13.5341C89.7105 13.8377 89.773 14.1414 89.8303 14.4501H90.1479C90.4396 14.4604 90.851 14.4501 91.3353 14.4141C91.8249 14.3729 92.3873 14.3009 92.9758 14.1619C93.2726 14.095 93.5695 14.0076 93.8715 13.9149C94.1736 13.8172 94.4756 13.7091 94.7673 13.5804C95.0641 13.4621 95.3506 13.3231 95.6318 13.1688C95.9182 13.0144 96.1994 12.8651 96.4703 12.721C96.7463 12.5718 97.0223 12.4432 97.2983 12.3299C97.5691 12.2167 97.8347 12.1344 98.0899 12.0726C98.595 11.9491 99.0325 11.9543 99.3241 11.9955C99.47 12.016 99.5845 12.0418 99.6626 12.0675L99.7772 12.1035H99.6574C99.5793 12.1035 99.4648 12.1035 99.3241 12.1138C99.0377 12.1395 98.6419 12.2219 98.194 12.3968C97.9701 12.4843 97.7358 12.5975 97.491 12.7262C97.2462 12.8548 96.9962 13.0092 96.7358 13.1688C96.4702 13.3283 96.2047 13.5032 95.913 13.6628C95.6266 13.8274 95.3193 13.9818 95.0068 14.1156C94.6944 14.2494 94.3663 14.3575 94.0434 14.4553C93.7205 14.5479 93.3924 14.6148 93.08 14.6663C92.4498 14.7692 91.8509 14.7795 91.3405 14.7434C90.8354 14.7126 90.4188 14.6302 90.1323 14.5633C90.0073 14.5325 89.9084 14.5067 89.8355 14.481C90.0125 15.4279 90.1063 16.4056 90.1063 17.404C90.1063 17.9649 90.075 18.5258 90.0177 19.0713C90.2469 19.1382 90.4812 19.1948 90.7052 19.2308C91.002 19.2874 91.2833 19.3234 91.5228 19.3389C91.6426 19.3543 91.7572 19.3595 91.8561 19.3646C91.9551 19.3698 92.0436 19.3749 92.1113 19.3698H92.3352L92.1113 19.4006C92.0384 19.4109 91.9551 19.4212 91.8561 19.4264C91.7572 19.4367 91.6426 19.4469 91.5228 19.4469C91.278 19.4469 90.9864 19.4315 90.6791 19.3955C90.4552 19.3646 90.2261 19.3131 89.9969 19.2565C89.8771 20.2858 89.6636 21.2841 89.3564 22.2464C89.523 22.2876 89.6897 22.3442 89.8511 22.4111C90.1063 22.5191 90.3563 22.6581 90.5906 22.8073C90.8198 22.9668 91.0385 23.1418 91.2416 23.3219C91.4447 23.502 91.6218 23.7079 91.7832 23.9034C91.9499 24.099 92.0905 24.2997 92.2207 24.4952C92.3509 24.6856 92.4602 24.876 92.5592 25.051C92.7571 25.4009 92.8977 25.7046 92.9914 25.9155C93.0852 26.1265 93.132 26.2552 93.132 26.2552C93.132 26.2552 93.0383 26.1574 92.8873 25.9773C92.7362 25.7972 92.5279 25.545 92.2727 25.2414L91.8613 24.7628C91.7155 24.593 91.5541 24.4232 91.3874 24.2534C91.2208 24.0784 91.0385 23.9189 90.851 23.7542C90.6635 23.5895 90.4604 23.4403 90.2521 23.3013C90.0438 23.1624 89.8303 23.0389 89.6063 22.936C89.4605 22.8691 89.3147 22.8073 89.1689 22.761C87.7992 26.5948 85.0078 29.7648 81.4196 31.6534C81.654 31.5505 81.8935 31.4373 82.1487 31.3292C82.6643 31.1079 83.2007 30.8455 83.7267 30.5624C84.2527 30.2897 84.7683 29.9861 85.2265 29.6722C85.6848 29.3583 86.1275 29.0546 86.5389 28.8385C86.9451 28.6224 87.3201 28.5143 87.5753 28.4423C87.8357 28.3805 87.9815 28.3496 87.9815 28.3496L87.6013 28.5143C87.3565 28.6172 87.0232 28.787 86.6535 29.0289C86.2785 29.2605 85.8879 29.6104 85.4296 29.95C84.9714 30.2897 84.4506 30.6139 83.9194 30.9124C83.3726 31.1851 82.8153 31.4373 82.2893 31.6482C82.0237 31.7512 81.7685 31.8541 81.5186 31.9313C81.2686 32.0136 81.0342 32.0857 80.8207 32.1577C80.3885 32.3018 80.0187 32.379 79.7635 32.4562C79.6437 32.4871 79.55 32.5076 79.4823 32.5231C77.7064 33.1818 75.7795 33.542 73.7745 33.542C73.7641 33.542 73.7537 33.542 73.7381 33.542C79.5031 34.669 84.4193 33.3413 87.4815 32.4562C91.3978 31.324 95.1995 31.8386 95.1995 31.8386C93.4237 30.4492 87.544 30.7734 87.544 30.7734C87.544 30.7734 88.1898 29.7391 90.6323 30.0581C92.9966 30.3617 94.6788 30.8918 96.2463 30.0375C96.2463 30.0375 91.1843 29.1524 91.2416 25.72C91.2416 25.72 94.5902 29.595 97.0639 28.4423C97.0639 28.4423 93.9497 27.0219 95.637 25.2466C97.3243 23.4712 101.225 25.3083 102.709 26.7235C104.193 28.1438 107.365 27.269 107.365 27.269C107.365 27.269 105.053 26.9139 104.136 24.2997C103.22 21.6803 99.5949 21.773 99.5949 21.773C99.5949 21.773 100.991 19.38 103.829 19.6888C106.667 19.9976 109.505 17.3371 109.505 17.3371C109.505 17.3371 105.053 17.9597 103.917 16.5394L103.938 16.56ZM88.5387 2.70682C88.6012 2.64507 88.6741 2.57302 88.7679 2.49583C88.8564 2.4135 88.9606 2.32601 89.0855 2.24368C89.3251 2.06356 89.6167 1.87831 89.95 1.70849C90.2833 1.54381 90.6583 1.39458 91.0385 1.27622C91.4239 1.1733 91.8197 1.09611 92.1894 1.05494C92.5644 1.01891 92.9133 1.01891 93.2101 1.04464C93.3612 1.04979 93.4966 1.07037 93.6164 1.09096C93.7361 1.1064 93.8403 1.12698 93.9236 1.14242L94.1892 1.20417L93.9184 1.18359C93.8351 1.1733 93.7309 1.16815 93.6111 1.163C93.4914 1.15786 93.356 1.15271 93.2101 1.15786C92.9185 1.15271 92.5748 1.18873 92.2154 1.2299C91.8561 1.27622 91.4707 1.35855 91.101 1.47177C90.726 1.57983 90.3615 1.71363 90.0334 1.86801C89.7053 2.02754 89.398 2.18192 89.1585 2.34145C89.0335 2.41864 88.9241 2.49069 88.8252 2.56273C88.7262 2.62963 88.6429 2.69138 88.5752 2.74284C88.4398 2.84576 88.3617 2.90752 88.3617 2.90752C88.3617 2.90752 88.4294 2.83547 88.5491 2.71711L88.5387 2.70682ZM89.3095 4.51823C89.1637 4.67261 89.0178 4.83214 88.8824 4.98138C88.6168 5.29529 88.3669 5.58861 88.169 5.85106C88.0648 5.97971 87.9763 6.10322 87.893 6.21129C87.8096 6.31935 87.7367 6.41713 87.6794 6.49432C87.5649 6.65385 87.4919 6.74648 87.4919 6.74648C87.4919 6.74648 87.518 6.63326 87.5753 6.44286C87.6013 6.34508 87.643 6.23187 87.6898 6.10322C87.7367 5.97457 87.7992 5.82533 87.8721 5.67095C88.0127 5.35704 88.221 5.01225 88.4658 4.65718C88.596 4.48736 88.721 4.3021 88.872 4.13228C89.0178 3.95731 89.1793 3.79264 89.3407 3.62797C89.5126 3.47358 89.6792 3.31406 89.8563 3.16997C90.0282 3.02073 90.2156 2.89723 90.3927 2.76857C90.575 2.65021 90.7521 2.537 90.9239 2.44437C91.0958 2.3466 91.2624 2.26426 91.4239 2.19222C91.5801 2.12017 91.7259 2.05842 91.8613 2.0121C91.9915 1.96579 92.1061 1.92462 92.205 1.89889C92.3977 1.84228 92.5123 1.8217 92.5123 1.8217C92.5123 1.8217 92.4186 1.89374 92.2571 2.00696C92.1738 2.06356 92.08 2.13046 91.9655 2.2128C91.8561 2.28999 91.7311 2.38262 91.5957 2.48039C91.4603 2.57817 91.3197 2.69138 91.1687 2.8046C91.0176 2.91781 90.8718 3.05161 90.7052 3.18026C90.5489 3.31406 90.3875 3.453 90.2313 3.59709C90.0698 3.73603 89.9136 3.89041 89.7574 4.0448C89.6063 4.19918 89.4449 4.34841 89.3043 4.50794L89.3095 4.51823ZM96.8765 8.88209C96.7358 9.0056 96.5223 9.17542 96.2255 9.32465C95.9338 9.47903 95.5589 9.61798 95.1214 9.64885C94.9027 9.66429 94.6735 9.65914 94.4444 9.60768C94.2153 9.55622 93.9965 9.47903 93.7882 9.37611C93.5851 9.26804 93.3924 9.13939 93.2206 9.00045C93.0435 8.86151 92.8977 8.70198 92.7623 8.54245C92.6269 8.38807 92.5123 8.21825 92.4133 8.06387C92.3144 7.90948 92.2311 7.74996 92.1582 7.61101C92.0176 7.32283 91.9238 7.07582 91.8613 6.90086C91.7988 6.72589 91.7728 6.62297 91.7728 6.62297C91.7728 6.62297 91.8457 6.70016 91.9655 6.84425C92.08 6.98834 92.2467 7.18904 92.4498 7.4309C92.5488 7.54926 92.6581 7.67277 92.7727 7.80656C92.8873 7.93522 93.0175 8.06387 93.1477 8.19252C93.2778 8.32117 93.4289 8.43953 93.5799 8.55274C93.7309 8.66596 93.8924 8.76888 94.0642 8.85121C94.2309 8.9387 94.4027 9.0056 94.5798 9.05191C94.7569 9.09822 94.9339 9.1291 95.111 9.13425C95.4651 9.14454 95.8089 9.08793 96.1057 9.01589C96.3973 8.9387 96.6473 8.85121 96.8192 8.78946L97.0952 8.68654C97.0952 8.68654 97.0223 8.76888 96.8817 8.88724L96.8765 8.88209ZM91.5436 29.3634C91.6374 29.4149 91.7207 29.4612 91.7832 29.5075C91.9082 29.595 91.9759 29.6516 91.9759 29.6516C91.9759 29.6516 91.8874 29.6413 91.7363 29.6156C91.6634 29.6001 91.5697 29.5898 91.4707 29.5744C91.3666 29.5589 91.252 29.5435 91.127 29.5281C91.002 29.5126 90.8666 29.5023 90.726 29.492C90.5854 29.4766 90.4344 29.4818 90.2833 29.4715C90.1323 29.4715 89.9709 29.4715 89.8146 29.4766C89.6532 29.4766 89.4918 29.492 89.3355 29.5075C89.1741 29.5281 89.0126 29.5384 88.8564 29.5692C88.7002 29.5898 88.5439 29.6207 88.3929 29.6464C88.0961 29.7133 87.8148 29.7802 87.5753 29.8523C87.4555 29.8883 87.3461 29.9243 87.2472 29.9552C87.1482 29.9861 87.0597 30.0118 86.992 30.0427C86.8514 30.0941 86.7629 30.1199 86.7629 30.1199C86.7629 30.1199 86.8201 30.053 86.9295 29.9449C86.9816 29.8883 87.0545 29.8265 87.1378 29.7596C87.2211 29.6876 87.3201 29.6156 87.4295 29.5487C87.6482 29.3994 87.9346 29.2605 88.2471 29.1473C88.4085 29.1009 88.57 29.0392 88.747 29.0083C88.9189 28.9671 89.1012 28.9517 89.2782 28.926C89.4605 28.9208 89.6376 28.9054 89.8146 28.9157C89.9917 28.9157 90.1636 28.9466 90.3302 28.962C90.4969 28.9877 90.6583 29.0238 90.8041 29.0701C90.9499 29.1112 91.0906 29.1576 91.2103 29.2142C91.3353 29.2605 91.4447 29.3171 91.5384 29.3685L91.5436 29.3634ZM96.8608 16.0814C97.0587 15.7572 97.267 15.469 97.4545 15.2272C97.642 14.9853 97.8295 14.8103 97.9597 14.6868C98.0951 14.5685 98.1732 14.5067 98.1732 14.5067C98.1732 14.5067 98.1003 14.5788 97.9857 14.7126C97.8659 14.8412 97.7149 15.0419 97.5431 15.2889C97.3712 15.5359 97.1941 15.8396 97.0067 16.1638C96.8192 16.4931 96.6161 16.843 96.4182 17.193C96.2046 17.5378 95.9703 17.8723 95.7203 18.1656C95.4756 18.4589 95.1995 18.7008 94.9548 18.8809C94.7048 19.0661 94.4704 19.1742 94.3038 19.236C94.2205 19.272 94.1528 19.2874 94.1059 19.3029L94.0382 19.3234L94.1059 19.2926C94.1476 19.272 94.2153 19.2462 94.2882 19.1999C94.4444 19.1227 94.6579 18.9838 94.8871 18.7882C95.1162 18.5978 95.3558 18.3405 95.5901 18.0524C95.8245 17.759 96.0432 17.4297 96.2515 17.0849C96.4598 16.7401 96.6681 16.3953 96.8608 16.0711V16.0814ZM92.3404 15.5308C92.2155 15.5308 92.1009 15.5308 92.0019 15.5154C91.903 15.5102 91.8144 15.4999 91.7415 15.4896L91.5176 15.4588H91.7415C91.8144 15.4588 91.8978 15.4485 92.0019 15.4433C92.1009 15.4433 92.2155 15.433 92.3352 15.4227C92.58 15.4073 92.8612 15.361 93.1581 15.3147C93.4549 15.2632 93.7726 15.186 94.0799 15.0934C94.3871 15.0008 94.6944 14.8927 94.9704 14.7743C95.2464 14.6508 95.5068 14.5376 95.7151 14.4141C95.8245 14.3575 95.9182 14.3009 96.0068 14.2494C96.0953 14.198 96.1682 14.1568 96.2255 14.1156L96.4182 13.9973L96.2515 14.1465C96.1994 14.1928 96.1317 14.2494 96.0484 14.3112C95.9703 14.3729 95.8818 14.4398 95.7776 14.5067C95.5745 14.6457 95.3245 14.7949 95.0433 14.9287C94.7621 15.0574 94.4548 15.1809 94.1371 15.2838C93.8195 15.3713 93.4914 15.4433 93.1841 15.4845C92.8768 15.5256 92.5852 15.5359 92.3352 15.5359L92.3404 15.5308ZM91.1583 20.0079H91.3926C91.4655 20.0079 91.5541 20.0079 91.6582 19.9976C91.7624 19.9976 91.8769 19.9924 92.0019 19.9821C92.2519 19.9821 92.5383 19.9307 92.8456 19.9049C93.1529 19.8689 93.4757 19.8072 93.7934 19.7197C94.1111 19.6476 94.4288 19.555 94.7152 19.4469C95.0016 19.3337 95.2777 19.2411 95.5016 19.1279C95.6162 19.0764 95.7203 19.025 95.8089 18.9838C95.9026 18.9426 95.9859 18.9015 96.0484 18.8654L96.2567 18.7625L96.0901 18.9323C96.038 18.9838 95.9703 19.0456 95.887 19.1125C95.8089 19.1793 95.7151 19.2565 95.611 19.3286C95.3974 19.4727 95.1423 19.6373 94.8454 19.7711C94.5486 19.8998 94.2205 20.0182 93.8872 20.1108C93.5487 20.1828 93.1997 20.2291 92.8768 20.2549C92.554 20.2755 92.2467 20.2446 91.9915 20.2137C91.8613 20.2034 91.7467 20.1777 91.6426 20.152C91.5384 20.1314 91.4499 20.1056 91.3822 20.0851L91.1583 20.013V20.0079ZM93.9757 26.8212C93.9601 26.7492 93.934 26.6669 93.9028 26.5742C93.8715 26.4765 93.8403 26.3684 93.7986 26.2552C93.7257 26.0185 93.6112 25.756 93.4914 25.4781C93.3664 25.2002 93.2154 24.9069 93.0487 24.629C92.8821 24.346 92.6998 24.0784 92.5175 23.8314C92.3248 23.5895 92.153 23.3631 91.9811 23.1881C91.8978 23.0955 91.8197 23.0132 91.7467 22.9411C91.679 22.8691 91.6166 22.8022 91.5593 22.7559L91.3978 22.5963C91.3978 22.5963 91.4655 22.6426 91.5853 22.725C91.6478 22.7662 91.7155 22.8228 91.7936 22.8845C91.8769 22.9463 91.9655 23.0183 92.054 23.1058C92.2415 23.2756 92.4498 23.4815 92.6477 23.7233C92.8456 23.9652 93.0383 24.2431 93.2154 24.5261C93.382 24.8194 93.5278 25.1179 93.6476 25.4061C93.7622 25.6994 93.8455 25.9773 93.9028 26.2192C93.934 26.3375 93.9549 26.4507 93.9705 26.5536C93.9861 26.6514 94.0017 26.7389 94.0069 26.811C94.0226 26.955 94.0278 27.0374 94.0278 27.0374L93.9653 26.8161L93.9757 26.8212ZM103.261 24.3563C103.449 24.5158 103.6 24.6959 103.725 24.8503C103.85 24.9995 103.928 25.1488 103.985 25.2466C104.037 25.3495 104.068 25.4061 104.068 25.4061L103.928 25.2929C103.845 25.2157 103.714 25.123 103.563 25.0047C103.423 24.8812 103.23 24.7628 103.048 24.6239C102.86 24.4849 102.647 24.3563 102.428 24.2379C102.22 24.1093 101.996 23.9909 101.787 23.8931C101.574 23.8005 101.376 23.6924 101.199 23.6307C101.022 23.5638 100.876 23.4917 100.767 23.4609C100.657 23.4197 100.6 23.394 100.6 23.394C100.6 23.394 100.668 23.394 100.782 23.3837C100.897 23.3837 101.064 23.3837 101.261 23.4197C101.459 23.4506 101.688 23.4969 101.923 23.5792C102.157 23.6667 102.402 23.7748 102.636 23.9034C102.86 24.0475 103.074 24.2019 103.266 24.3614L103.261 24.3563ZM99.8658 22.5243C100.371 22.5037 100.845 22.5603 101.241 22.6581C101.636 22.7559 101.938 22.9154 102.136 23.0389C102.235 23.1006 102.308 23.1573 102.355 23.1984L102.428 23.255L102.345 23.2036C102.293 23.1675 102.214 23.1212 102.11 23.0698C101.907 22.9617 101.595 22.8433 101.209 22.761C100.824 22.6838 100.36 22.6632 99.871 22.689C99.3762 22.7147 98.8606 22.8073 98.3399 22.9205C97.8191 23.0235 97.2983 23.1367 96.7983 23.2087C96.2984 23.2859 95.8245 23.3013 95.4235 23.2808C95.0173 23.2602 94.6892 23.183 94.4652 23.1212C94.2413 23.0543 94.1215 22.9977 94.1215 22.9977C94.1215 22.9977 94.2465 23.0389 94.4757 23.0852C94.7048 23.1315 95.0329 23.1727 95.4287 23.1727C95.8245 23.1727 96.2828 23.1212 96.7723 23.0389C97.2618 22.9566 97.7774 22.8382 98.3034 22.725C98.8294 22.6221 99.3606 22.5397 99.8658 22.5191V22.5243ZM100.23 17.7899C99.9595 17.9031 99.6887 17.9906 99.4752 18.0987C99.3658 18.1501 99.2669 18.1965 99.1783 18.2376C99.0898 18.2788 99.0117 18.3148 98.9492 18.3508C98.819 18.4126 98.7461 18.4486 98.7461 18.4486C98.7461 18.4486 98.8034 18.392 98.9023 18.2891C98.9544 18.2376 99.0169 18.181 99.095 18.1141C99.1679 18.0472 99.2564 17.9752 99.3606 17.9083C99.5637 17.7693 99.8085 17.6098 100.09 17.476C100.376 17.3474 100.689 17.2341 101.006 17.1415C101.334 17.0695 101.662 17.018 101.975 16.9923C102.287 16.9717 102.579 16.9923 102.824 17.018C102.949 17.0283 103.058 17.0489 103.157 17.0695C103.256 17.09 103.339 17.1106 103.412 17.1312L103.631 17.1981C103.631 17.1981 103.548 17.1981 103.407 17.2084C103.334 17.2084 103.251 17.2084 103.152 17.2187C103.053 17.2238 102.944 17.2341 102.824 17.2393C102.584 17.2444 102.308 17.2959 102.017 17.3319C101.725 17.3731 101.412 17.44 101.11 17.5223C100.803 17.5944 100.501 17.687 100.225 17.7899H100.23ZM105.407 18.3045C105.204 18.2685 104.969 18.2325 104.719 18.2067C104.469 18.1707 104.199 18.145 103.928 18.1296C103.657 18.1038 103.386 18.0935 103.131 18.0884C102.876 18.0781 102.636 18.0781 102.433 18.0884C102.022 18.0884 101.751 18.1038 101.751 18.1038C101.751 18.1038 102.017 18.0421 102.428 17.9752C102.631 17.9494 102.876 17.9289 103.131 17.9186C103.391 17.9186 103.667 17.9186 103.943 17.934C104.22 17.9597 104.49 17.9958 104.745 18.0369C105.001 18.0884 105.235 18.1398 105.433 18.1965C105.829 18.32 106.084 18.4229 106.084 18.4229C106.084 18.4229 105.813 18.3611 105.412 18.3045H105.407Z" fill="url(#paint0_linear_49_426)"/>
<path d="M111.037 10.3436C110.745 10.3796 110.401 10.4774 110.078 10.6472C109.917 10.7347 109.761 10.8273 109.615 10.956C109.453 11.0898 109.36 11.1978 109.235 11.3368C108.844 11.8205 108.365 12.2476 107.969 12.5461C107.573 12.8497 107.256 13.035 107.256 13.035C107.256 13.035 107.651 13.0247 108.172 12.8137C108.433 12.7108 108.724 12.5615 109.006 12.3608C109.287 12.1653 109.547 11.9183 109.776 11.6507C109.865 11.5426 109.99 11.3985 110.084 11.3162C110.188 11.2236 110.297 11.1155 110.417 11.0383C110.651 10.8685 110.906 10.7398 111.141 10.6421C111.609 10.4517 111.995 10.395 111.995 10.395C111.995 10.395 111.625 10.2613 111.031 10.3384L111.037 10.3436Z" fill="url(#paint1_linear_49_426)"/>
<path d="M96.6265 6.67959C96.4026 6.7362 96.1734 6.79281 95.9495 6.83397C95.7308 6.88029 95.4964 6.9266 95.2933 6.94204C94.8767 6.98836 94.4861 6.91631 94.1996 6.76707C93.9184 6.61269 93.7257 6.42229 93.6216 6.27305C93.5122 6.12382 93.4706 6.03119 93.4706 6.03119C93.4706 6.03119 93.4862 6.13411 93.5643 6.29878C93.6476 6.45831 93.7934 6.70018 94.0903 6.89573C94.3871 7.09128 94.8402 7.22507 95.3141 7.18391C95.5589 7.16847 95.7776 7.13759 96.012 7.09128C96.2463 7.05011 96.4755 6.9935 96.7098 6.94204C97.6264 6.71047 98.5169 6.46346 99.22 6.43773C99.5689 6.41714 99.8606 6.43773 100.069 6.45317L100.392 6.49433L100.079 6.39656C99.8762 6.35539 99.5793 6.2782 99.2148 6.2782C98.8502 6.26791 98.4232 6.29364 97.9753 6.37083C97.5275 6.44287 97.0692 6.56123 96.6161 6.6693L96.6265 6.67959Z" fill="url(#paint2_linear_49_426)"/>
<path d="M108.558 26.9293C108.349 26.8778 108.115 26.7904 107.881 26.6823C107.641 26.5794 107.407 26.4404 107.178 26.2912C106.724 25.9927 106.334 25.6222 106.058 25.334C105.782 25.0407 105.61 24.8297 105.61 24.8297C105.61 24.8297 105.683 25.0819 105.902 25.4164C106.016 25.581 106.152 25.7766 106.334 25.967C106.511 26.1574 106.73 26.3427 106.969 26.5073C107.214 26.6669 107.48 26.8109 107.75 26.9036C108.016 27.0065 108.287 27.0528 108.511 27.0837C108.74 27.1197 108.933 27.1094 109.063 27.0991L109.271 27.0837C109.271 27.0837 109.198 27.0682 109.068 27.0477C108.938 27.0322 108.761 26.9911 108.552 26.9344L108.558 26.9293Z" fill="url(#paint3_linear_49_426)"/>
<path d="M58 17.4297C58 26.0339 65.0827 33.0377 73.7954 33.0377C82.5081 33.0377 89.5907 26.0391 89.5907 17.4297C89.5907 8.82035 82.5028 1.82172 73.7954 1.82172C65.0879 1.82172 58 8.8255 58 17.4297ZM84.4506 7.37946C84.4506 7.37946 85.638 9.66945 85.8254 13.0607C85.9036 13.0916 85.9817 13.1225 86.0546 13.1533C86.1535 13.1945 86.2421 13.246 86.3306 13.2871C86.5077 13.3798 86.6691 13.4775 86.7993 13.5702C86.9295 13.6576 87.0337 13.7451 87.1066 13.8069C87.1795 13.8686 87.2159 13.9047 87.2159 13.9047C87.2159 13.9047 87.1639 13.8892 87.0753 13.8532L86.7212 13.7143C86.5754 13.6576 86.4035 13.5856 86.2264 13.5136C86.1379 13.4775 86.0442 13.4415 85.9452 13.4055C85.9088 13.3901 85.8723 13.3798 85.8359 13.3643C84.2058 12.8446 82.2164 12.5667 80.352 12.5152C75.8108 12.3866 70.2384 13.5033 67.9313 16.9511C67.0512 16.3542 66.2805 15.7881 65.5982 15.2375C65.9107 14.7435 66.244 14.2443 66.6085 13.7245C70.3478 8.39323 76.9878 3.664 81.9873 5.32104C82.883 5.91283 83.7059 6.6024 84.4454 7.36917L84.4506 7.37946ZM64.6869 15.397C62.0569 19.7506 61.3382 23.3837 62.4579 26.7338C60.8018 24.768 59.6613 22.3596 59.2395 19.7197C59.3749 18.5155 60.0988 17.6304 61.0622 16.4571C61.6715 15.7161 62.3485 14.8876 63.0412 13.8069C63.5151 14.3369 64.0619 14.8618 64.6869 15.397V15.397ZM82.4456 23.8417C82.5549 23.8777 82.6643 23.9137 82.7684 23.9498L83.1434 24.0784C83.3882 24.1607 83.6121 24.2431 83.8048 24.3151C83.9975 24.3872 84.1589 24.4541 84.2735 24.4952L84.4506 24.5724L84.2631 24.5467C84.1433 24.5313 83.9715 24.5004 83.7683 24.4592C83.5652 24.4181 83.3309 24.3666 83.0757 24.2997C82.9507 24.2637 82.8205 24.2328 82.6903 24.1916C82.5601 24.1505 82.4299 24.1093 82.2945 24.0681L82.2633 24.0578C79.1959 23.2087 75.1963 21.4128 71.0612 18.9324C70.129 18.3714 69.2854 17.8465 68.5198 17.3422C70.6602 14.1259 75.9826 13.0916 80.3364 13.2099C82.4351 13.2665 84.3777 13.601 85.8463 14.1054C85.8202 16.9357 85.0391 20.3681 82.4456 23.8314V23.8417ZM70.6967 19.5344C74.79 21.9891 78.7011 23.7645 81.805 24.6496C81.6488 24.8349 81.4925 25.0201 81.3311 25.2054C78.6959 28.1592 75.7639 29.3789 73.0454 29.6979C73.1079 29.7391 73.1652 29.7802 73.2277 29.8214L73.6495 30.1044C73.9255 30.2846 74.1807 30.4595 74.4047 30.6036C74.6286 30.7528 74.8109 30.8764 74.9359 30.969L75.1338 31.1131L74.9098 31.0153C74.7692 30.9535 74.5661 30.8609 74.3266 30.7374C74.087 30.6191 73.811 30.475 73.5193 30.3051C73.3735 30.2177 73.2277 30.1353 73.0767 30.0375C72.9309 29.9398 72.7798 29.842 72.634 29.7391C72.4882 29.6362 72.3476 29.5281 72.207 29.42C72.0664 29.312 71.9362 29.1987 71.8112 29.0855C71.6862 28.9723 71.5716 28.8591 71.4622 28.751C71.457 28.7459 71.4518 28.7407 71.4466 28.7356C70.1134 27.588 68.9781 26.1986 68.2646 24.7217C67.4574 23.0543 66.8064 20.5585 68.1709 17.9495C68.9364 18.4538 69.7801 18.9735 70.7019 19.5293L70.6967 19.5344ZM67.6189 25.0253C68.499 26.8367 69.9259 28.4989 71.5924 29.7905C67.9261 29.8266 64.8327 28.4062 63.6401 27.7733C61.9007 24.2637 62.385 20.5688 65.2233 15.8499C65.9107 16.4005 66.6867 16.9666 67.5668 17.5635C66.0201 20.4504 66.7283 23.2036 67.6137 25.0304L67.6189 25.0253ZM69.4104 31.3395L69.7697 31.4373C70.0041 31.499 70.353 31.5762 70.7956 31.6586C71.2435 31.7409 71.7851 31.8181 72.4153 31.8644C73.0454 31.9107 73.7537 31.9159 74.5244 31.8747C75.2952 31.8232 76.1285 31.71 76.9878 31.5145C77.847 31.3138 78.7376 31.0204 79.6177 30.6396C81.3832 29.8729 83.0965 28.6841 84.4818 27.1918C85.8879 25.7149 86.9451 23.924 87.5753 22.1281C87.8877 21.2275 88.1117 20.3321 88.2471 19.4675C88.2731 19.2514 88.3096 19.0353 88.3304 18.8294C88.3512 18.6184 88.3669 18.4126 88.3877 18.2068C88.4033 17.7899 88.4242 17.3937 88.4137 17.0129C88.3877 15.4845 88.1377 14.2186 87.8982 13.354C87.7784 12.9218 87.669 12.5873 87.5909 12.3608L87.4659 12.0161L87.6065 12.3557C87.6951 12.5821 87.8252 12.9063 87.9607 13.3386C88.2315 14.1928 88.5491 15.4588 88.6116 17.0077C88.6325 17.3937 88.6168 17.8002 88.6116 18.2119C88.596 18.4229 88.5856 18.6339 88.57 18.85C88.5543 19.0662 88.5231 19.2823 88.4971 19.5036C88.3825 20.3835 88.1794 21.3098 87.8617 22.2258C87.2316 24.063 86.1692 25.9053 84.7422 27.4285C83.3101 28.9517 81.5498 30.1508 79.7427 30.9175C77.9356 31.6946 76.0972 32.0033 74.5349 32.0702C74.1443 32.0702 73.7641 32.0908 73.41 32.0702C73.0506 32.0548 72.7173 32.0291 72.3997 31.993C71.7695 31.921 71.2227 31.8232 70.78 31.7203C70.3374 31.6225 69.9936 31.5196 69.7593 31.4476C69.5301 31.3755 69.4052 31.3344 69.4052 31.3344L69.4104 31.3395ZM66.0305 13.3334C65.6816 13.8275 65.3639 14.3112 65.0618 14.7898C64.4369 14.2494 63.9005 13.7143 63.4318 13.1791C63.713 12.7159 63.989 12.2682 64.2546 11.8411C65.3118 10.1275 66.2232 8.65053 66.9158 7.01409C67.4887 5.65038 68.0147 4.60573 69.0979 3.89043C68.9469 3.94704 68.7906 4.00364 68.6396 4.07054L68.2126 4.25066C68.0719 4.31241 67.9313 4.38445 67.7855 4.4565C67.6293 4.52854 67.4783 4.60573 67.322 4.68807C66.9054 5.29016 66.5825 5.98488 66.2596 6.74649C65.5878 8.33662 64.6921 9.79296 63.6505 11.4757C63.4266 11.8411 63.1922 12.2168 62.9579 12.6027C62.3381 11.7948 61.859 10.9663 61.4684 10.0554C61.3434 10.251 61.2236 10.4414 61.1091 10.6369C61.083 10.6884 61.0518 10.7398 61.0257 10.7913C61.4372 11.661 61.9319 12.4689 62.5621 13.246C61.8538 14.3884 61.1455 15.2529 60.5154 16.0197C59.9425 16.7144 59.4322 17.3371 59.0728 17.9958C59.0676 17.8054 59.0572 17.6201 59.0572 17.4297L59.0468 17.1724C59.0468 17.0026 59.0155 16.7607 59.0259 16.4468C59.0259 16.2873 59.0312 16.1123 59.0364 15.9219C59.052 15.7315 59.0676 15.5257 59.0832 15.3095C59.0989 15.0883 59.1405 14.8567 59.1666 14.6148C59.1978 14.3678 59.2551 14.1156 59.3072 13.8481C59.3645 13.5805 59.4374 13.3077 59.5051 13.0195C59.5936 12.7416 59.6717 12.4432 59.7811 12.1499C59.9842 11.5581 60.255 10.9508 60.5675 10.3384C60.8956 9.73635 61.2601 9.12397 61.6924 8.54247C62.1298 7.96611 62.6089 7.40519 63.1245 6.88544C63.6557 6.37598 64.2182 5.89739 64.8014 5.47027C65.3899 5.04315 66.0096 4.68292 66.6138 4.35872C67.2335 4.04996 67.8428 3.78236 68.4469 3.58167C68.7438 3.4736 69.0406 3.39126 69.327 3.30378C69.6187 3.23688 69.8947 3.16484 70.1655 3.10823C70.4363 3.06192 70.6915 3.00016 70.9415 2.96929C71.1914 2.93841 71.4258 2.90239 71.6445 2.88695L72.2642 2.84064L72.7902 2.83034C73.1079 2.82005 73.3579 2.84578 73.5298 2.85093L73.7901 2.86122C76.0816 2.86122 78.248 3.37583 80.1854 4.30212C75.2223 4.11171 69.4364 8.47042 66.0305 13.3283V13.3334Z" fill="url(#paint4_linear_49_426)"/>
</g>
<path d="M2.7 33H24.6333L26.7833 31.2167L29.2667 19.55L27.8667 17.7667H5.93333L2.7 33ZM13.8333 21.0333H20.35L18.5 29.7333H11.9833L13.8333 21.0333ZM4.43333 16.8167H31.55L31.8667 15.35H4.75L4.43333 16.8167ZM0.5 35.4167H27.6L27.9 33.95H0.8L0.5 35.4167ZM27.8172 33H50.0172L50.7505 29.5167H37.1505L37.6672 27.1H50.8172L51.5505 23.6167H38.4005L38.9005 21.25H52.5005L53.2505 17.7667H31.0505L27.8172 33ZM25.6172 35.4167H51.2005L51.5005 33.95H25.9172L25.6172 35.4167ZM29.5505 16.8167H55.1505L55.4672 15.35H29.8672L29.5505 16.8167ZM2.7 55H26.4167L27.6833 49.0333L26.6667 47.4167L28.3667 45.7833L29.65 39.7667H5.93333L2.7 55ZM0.5 57.4167H27.6L27.9 55.95H0.8L0.5 57.4167ZM4.43333 38.8167H31.55L31.8667 37.35H4.75L4.43333 38.8167ZM13.8333 43.0333H20.35L19.7667 45.7667H13.25L13.8333 43.0333ZM12.5667 49.0333H19.0833L18.5 51.7333H11.9833L12.5667 49.0333ZM27.8172 55H36.4172L37.6839 49.0333H44.2005L42.9339 55H51.5339L54.7672 39.7667H31.0505L27.8172 55ZM25.6172 57.4167H52.7172L53.0172 55.95H25.9172L25.6172 57.4167ZM29.5505 38.8167H56.6672L56.9839 37.35H29.8672L29.5505 38.8167ZM38.9505 43.0333H45.4672L44.8839 45.7667H38.3672L38.9505 43.0333ZM68.051 55H76.651L79.8844 39.7667H71.2844L69.401 48.6333L64.7677 39.7667H56.1677L52.9344 55H61.5344L63.4177 46.1167L68.051 55ZM54.6677 38.8167H81.7844L82.101 37.35H54.9844L54.6677 38.8167ZM50.7344 57.4167H77.8344L78.1344 55.95H51.0344L50.7344 57.4167ZM78.0516 55H99.9849L102.135 53.2167L104.618 41.55L103.218 39.7667H81.2849L78.0516 55ZM89.1849 43.0333H95.7016L93.8516 51.7333H87.3349L89.1849 43.0333ZM79.7849 38.8167H106.902L107.218 37.35H80.1016L79.7849 38.8167ZM75.8516 57.4167H102.952L103.252 55.95H76.1516L75.8516 57.4167ZM103.169 55H125.369L126.102 51.5167H112.502L113.019 49.1H126.169L126.902 45.6167H113.752L114.252 43.25H127.852L128.602 39.7667H106.402L103.169 55ZM100.969 57.4167H126.552L126.852 55.95H101.269L100.969 57.4167ZM104.902 38.8167H130.502L130.819 37.35H105.219L104.902 38.8167ZM138.146 43.0333H144.413L142.563 51.7333H136.046L136.846 48H128.246L127.129 53.2167L128.546 55H150.479L153.713 39.7667H138.846L138.146 43.0333ZM155.929 37.35H128.813L128.496 38.8167H155.613L155.929 37.35ZM151.963 55.95H124.862L124.562 57.4167H151.662L151.963 55.95ZM151.88 55H160.48L161.746 49.0333H168.263L166.996 55H175.596L178.83 39.7667H155.113L151.88 55ZM149.68 57.4167H176.78L177.08 55.95H149.98L149.68 57.4167ZM153.613 38.8167H180.73L181.046 37.35H153.93L153.613 38.8167ZM163.013 43.0333H169.53L168.946 45.7667H162.43L163.013 43.0333Z" fill="url(#paint5_linear_49_426)"/>
<defs>
<linearGradient id="paint0_linear_49_426" x1="91.5176" y1="-0.000305176" x2="91.5176" y2="33.9751" gradientUnits="userSpaceOnUse">
<stop stop-color="#D96725"/>
<stop offset="1" stop-color="#A62F03"/>
</linearGradient>
<linearGradient id="paint1_linear_49_426" x1="109.625" y1="10.3145" x2="109.625" y2="13.035" gradientUnits="userSpaceOnUse">
<stop stop-color="#D96725"/>
<stop offset="1" stop-color="#A62F03"/>
</linearGradient>
<linearGradient id="paint2_linear_49_426" x1="96.9312" y1="6.03119" x2="96.9312" y2="7.19137" gradientUnits="userSpaceOnUse">
<stop stop-color="#D96725"/>
<stop offset="1" stop-color="#A62F03"/>
</linearGradient>
<linearGradient id="paint3_linear_49_426" x1="107.441" y1="24.8297" x2="107.441" y2="27.1088" gradientUnits="userSpaceOnUse">
<stop stop-color="#D96725"/>
<stop offset="1" stop-color="#A62F03"/>
</linearGradient>
<linearGradient id="paint4_linear_49_426" x1="73.7954" y1="1.82172" x2="73.7954" y2="33.0377" gradientUnits="userSpaceOnUse">
<stop stop-color="#D96725"/>
<stop offset="1" stop-color="#A62F03"/>
</linearGradient>
<linearGradient id="paint5_linear_49_426" x1="131" y1="156.128" x2="131" y2="-67.1637" gradientUnits="userSpaceOnUse">
<stop offset="0.119792" stop-color="#1A1A1A"/>
<stop offset="0.380208" stop-color="#A62F03"/>
<stop offset="0.697917" stop-color="#D96725" stop-opacity="0.8"/>
</linearGradient>
<clipPath id="clip0_49_426">
<rect width="54" height="34" fill="white" transform="translate(58)"/>
</clipPath>
</defs>
</svg>
